<?xml version="1.0" encoding="UTF-8"?>
<svg id="Layer_2" xmlns="http://www.w3.org/2000/svg" viewBox="0 0 351.92 351.92">
  <defs>
    <style>
      .cls-1 {
        fill: #231f20;
      }
    </style>
  </defs>
  <g id="Layer_1-2" data-name="Layer_1">
    <path class="cls-1" d="M175.96,14.08c89.26,0,161.88,72.62,161.88,161.88s-72.62,161.88-161.88,161.88S14.08,265.22,14.08,175.96,86.7,14.08,175.96,14.08M175.96,0C78.78,0,0,78.78,0,175.96s78.78,175.96,175.96,175.96,175.96-78.78,175.96-175.96S273.14,0,175.96,0h0Z"/>
    <g>
      <path class="cls-1" d="M128.88,172.84v-58.97h15.48v124.18h-15.48v-52.94h-43.55v52.94h-15.48v-124.18h15.48v58.97h43.55Z"/>
      <path class="cls-1" d="M150.82,185.51h-6.42v52.54h-15.48v-124.18h18.78c11.03,0,22.89.16,32.77,5.76,10.37,6.09,16.3,17.79,16.3,29.64,0,17.79-11.86,32.61-29.81,34.75,0,0-7.88,1.48-16.14,1.48ZM144.4,172.67h4.94c15.81,0,32.94-2.96,32.94-22.73s-18.45-22.23-33.76-22.23h-4.12v44.96Z"/>
      <path class="cls-1" d="M187.07,198.36l28.4-75.99,26.18,75.99,25.85-84.48h14.57l-40.42,123.74-26.18-77.45-28.4,77.45-22-58.51,12.16-10.04,9.84,29.3Z"/>
    </g>
  </g>
</svg>