<?xml version="1.0" encoding="utf-8"?>
<!-- Generator: Adobe Illustrator 16.0.3, SVG Export Plug-In . SVG Version: 6.00 Build 0)  -->
<!DOCTYPE svg PUBLIC "-//W3C//DTD SVG 1.1//EN" "http://www.w3.org/Graphics/SVG/1.1/DTD/svg11.dtd">
<svg version="1.1" id="Layer_1" xmlns="http://www.w3.org/2000/svg" xmlns:xlink="http://www.w3.org/1999/xlink" x="0px" y="0px"
	 width="351.924px" height="351.923px" viewBox="0 0 351.924 351.923" style="enable-background:new 0 0 351.924 351.923;"
	 xml:space="preserve">
<style type="text/css">
<![CDATA[
	.st0{fill:#FFFFFF;}
]]>
</style>
<path class="st0" d="M175.961,14.083c89.262,0,161.88,72.619,161.88,161.878c0,89.261-72.618,161.878-161.88,161.878
	c-89.259,0-161.878-72.617-161.878-161.878C14.083,86.702,86.702,14.083,175.961,14.083 M175.961,0C78.781,0,0,78.781,0,175.961
	c0,97.181,78.781,175.962,175.961,175.962c97.182,0,175.963-78.781,175.963-175.962C351.924,78.781,273.143,0,175.961,0L175.961,0z"
	/>
<polygon class="st0" points="265.93,127.071 174.416,236.199 82.902,127.071 71.066,137.051 174.347,260.209 174.416,260.128 
	174.485,260.209 277.766,137.051 "/>
</svg>
