<?xml version="1.0" encoding="utf-8"?>
<!-- Generator: Adobe Illustrator 16.0.3, SVG Export Plug-In . SVG Version: 6.00 Build 0)  -->
<!DOCTYPE svg PUBLIC "-//W3C//DTD SVG 1.1//EN" "http://www.w3.org/Graphics/SVG/1.1/DTD/svg11.dtd">
<svg version="1.1" id="Layer_1" xmlns="http://www.w3.org/2000/svg" xmlns:xlink="http://www.w3.org/1999/xlink" x="0px" y="0px"
	 width="351.8px" height="351.9px" viewBox="0 0 351.8 351.9" style="enable-background:new 0 0 351.8 351.9;" xml:space="preserve"
	>
<style type="text/css">
<![CDATA[
	.st0{fill:#FFFFFF;}
]]>
</style>
<path class="st0" d="M175.8,14.1c89.3,0,161.9,72.6,161.9,161.9c0,89.3-72.6,161.9-161.9,161.9c-89.3,0-161.9-72.6-161.9-161.9
	C13.9,86.7,86.6,14.1,175.8,14.1 M175.8,0C78.6,0-0.1,78.8-0.1,176c0,97.2,78.8,176,176,176c97.2,0,176-78.8,176-176
	C351.8,78.8,273,0,175.8,0L175.8,0z"/>
<g>
	<path class="st0" d="M128.7,172.8v-59h15.5v124.2h-15.5v-52.9H85.2v52.9H69.7V113.9h15.5v59H128.7z"/>
	<path class="st0" d="M150.7,185.5h-6.4v52.5h-15.5V113.9h18.8c11,0,22.9,0.2,32.8,5.8c10.4,6.1,16.3,17.8,16.3,29.6
		c0,17.8-11.9,32.6-29.8,34.8C166.8,184,158.9,185.5,150.7,185.5z M144.3,172.7h4.9c15.8,0,32.9-3,32.9-22.7
		c0-19.4-18.4-22.2-33.8-22.2h-4.1V172.7z"/>
	<path class="st0" d="M186.9,198.4l28.4-76l26.2,76l25.8-84.5h14.6l-40.4,123.7l-26.2-77.5l-28.4,77.5l-22-58.5l12.2-10L186.9,198.4
		z"/>
</g>
</svg>
